<?xml version="1.0" encoding="UTF-8" standalone="no"?>
<svg
   xmlns:dc="http://purl.org/dc/elements/1.1/"
   xmlns:cc="http://creativecommons.org/ns#"
   xmlns:rdf="http://www.w3.org/1999/02/22-rdf-syntax-ns#"
   xmlns:svg="http://www.w3.org/2000/svg"
   xmlns="http://www.w3.org/2000/svg"
   xmlns:sodipodi="http://sodipodi.sourceforge.net/DTD/sodipodi-0.dtd"
   xmlns:inkscape="http://www.inkscape.org/namespaces/inkscape"
   viewBox="0 0 475.48 399.37"
   version="1.1"
   id="svg430"
   sodipodi:docname="multi-region-standalone-text-black.svg"
   inkscape:version="0.92.3 (2405546, 2018-03-11)">
  <metadata
     id="metadata434">
    <rdf:RDF>
      <cc:Work
         rdf:about="">
        <dc:format>image/svg+xml</dc:format>
        <dc:type
           rdf:resource="http://purl.org/dc/dcmitype/StillImage" />
        <dc:title />
      </cc:Work>
    </rdf:RDF>
  </metadata>
  <sodipodi:namedview
     pagecolor="#ffffff"
     bordercolor="#666666"
     borderopacity="1"
     objecttolerance="10"
     gridtolerance="10"
     guidetolerance="10"
     inkscape:pageopacity="0"
     inkscape:pageshadow="2"
     inkscape:window-width="3200"
     inkscape:window-height="1675"
     id="namedview432"
     showgrid="false"
     inkscape:zoom="1.6714044"
     inkscape:cx="112.94537"
     inkscape:cy="56.73792"
     inkscape:window-x="-13"
     inkscape:window-y="-13"
     inkscape:window-maximized="1"
     inkscape:current-layer="svg430" />
  <defs
     id="defs4">
    <style
       id="style2">.cls-1{fill:#7889a8;}.cls-2{fill:#5b6b8d;}.cls-20,.cls-26,.cls-3{fill:#fff;}.cls-4{fill:#003a70;}.cls-5{fill:#ffa400;}.cls-6{fill:#58596c;}.cls-7{fill:#ff5856;}.cls-8{fill:#db4040;}.cls-9{fill:#cc3636;}.cls-10{fill:#ffdc67;}.cls-11{fill:#ffb456;}.cls-12{fill:#fc974d;}.cls-13{fill:#f47f31;}.cls-14{fill:#912626;}.cls-15{fill:#c6302b;}.cls-16{fill:#621b1c;}.cls-17{fill:#9a2928;}.cls-18{fill:#002b64;}.cls-19{fill:#d77758;}.cls-20{font-size:12px;}.cls-20,.cls-26{font-family:Tahoma;}.cls-21{letter-spacing:-0.06em;}.cls-22{fill:#5e8cda;}.cls-23{fill:#093071;}.cls-24{fill:#f5cd21;}.cls-25{fill:#fddd75;}.cls-26{font-size:14px;}.cls-27{letter-spacing:0.01em;}.cls-28{letter-spacing:-0.03em;}.cls-29{letter-spacing:-0.01em;}.cls-30{letter-spacing:-0.04em;}.cls-31{letter-spacing:0em;}.cls-32{letter-spacing:-0.01em;}.cls-33{letter-spacing:0em;}.cls-34{letter-spacing:0em;}.cls-35{letter-spacing:-0.01em;}.cls-36{letter-spacing:-0.02em;}.cls-37{fill:#556ae5;}.cls-38{letter-spacing:-0.01em;}</style>
  </defs>
  <line
     class="cls-1"
     x1="229.81"
     y1="255.35001"
     x2="244.81"
     y2="255.35001"
     id="line362"
     style="fill:#7889a8" />
  <rect
     class="cls-1"
     x="229.81"
     y="254.85001"
     width="15"
     height="1"
     id="rect364"
     style="fill:#7889a8;stroke:#7889a8;stroke-opacity:1" />
  <path
     class="cls-1"
     d="m 206.25,157.24 a 5,5 0 0 1 5,5 v 229.85 a 5,5 0 0 1 -5,5 H 7 a 5,5 0 0 1 -5,-5 V 162.24 a 5,5 0 0 1 5,-5 h 199.25 m 0,-2 H 7 a 7,7 0 0 0 -7,7 v 229.85 a 7,7 0 0 0 7,7 h 199.25 a 7,7 0 0 0 7,-7 V 162.24 a 7,7 0 0 0 -7,-7 z"
     id="path6"
     inkscape:connector-curvature="0"
     style="fill:#7889a8" />
  <path
     class="cls-2"
     d="m 2,375 h 209.25 v 17 a 5,5 0 0 1 -5,5 H 7 a 5,5 0 0 1 -5,-5 z"
     id="path8"
     inkscape:connector-curvature="0"
     style="fill:#5b6b8d" />
  <path
     class="cls-3"
     d="m 117.68,154.11 h -1.35 v -1.73 a 5.86,5.86 0 1 0 -11.71,0 v 1.73 h -1.39 a 1.11,1.11 0 0 0 -1.13,1.12 v 10.69 a 1.12,1.12 0 0 0 1.13,1.13 h 14.45 a 1.12,1.12 0 0 0 1.13,-1.13 v -10.69 a 1.15,1.15 0 0 0 -1.13,-1.12 z m -6.52,7 v 1.45 a 0.74,0.74 0 0 1 -1.48,0 v -1.45 a 1.44,1.44 0 0 1 -0.74,-1.3 1.5,1.5 0 0 1 3,0 1.37,1.37 0 0 1 -0.78,1.31 z m -3.19,-7 v -1.73 a 2.51,2.51 0 1 1 5,0 v 1.73 z"
     id="path10"
     inkscape:connector-curvature="0"
     style="fill:#ffffff" />
  <path
     class="cls-3"
     d="m 102.78,151.5 a 1,1 0 0 0 -1,-1 h -3.51 a 1.025,1.025 0 0 0 0,2.05 h 3.49 a 1,1 0 0 0 1.02,-1.05 z"
     id="path12"
     inkscape:connector-curvature="0"
     style="fill:#ffffff" />
  <path
     class="cls-3"
     d="m 103.6,146.77 a 0.87,0.87 0 0 0 0.63,0.25 1.17,1.17 0 0 0 0.81,-0.39 1.06,1.06 0 0 0 -0.14,-1.45 l -2.75,-2.25 a 1.06,1.06 0 0 0 -1.45,0.14 1,1 0 0 0 0.15,1.44 z"
     id="path14"
     inkscape:connector-curvature="0"
     style="fill:#ffffff" />
  <path
     class="cls-3"
     d="m 110.47,144.62 a 1,1 0 0 0 1,-1 v -3.53 a 1,1 0 0 0 -2,0 v 3.53 a 1,1 0 0 0 1,1 z"
     id="path16"
     inkscape:connector-curvature="0"
     style="fill:#ffffff" />
  <path
     class="cls-3"
     d="m 116.68,147 a 1,1 0 0 0 0.67,-0.25 l 2.75,-2.26 a 1,1 0 0 0 0.14,-1.44 1.06,1.06 0 0 0 -1.45,-0.14 l -2.79,2.27 a 1.06,1.06 0 0 0 -0.14,1.45 1,1 0 0 0 0.82,0.37 z"
     id="path18"
     inkscape:connector-curvature="0"
     style="fill:#ffffff" />
  <path
     class="cls-3"
     d="m 122.64,150.47 h -3.53 a 1.025,1.025 0 0 0 0,2.05 h 3.53 a 1.025,1.025 0 0 0 0,-2.05 z"
     id="path20"
     inkscape:connector-curvature="0"
     style="fill:#ffffff" />
  <path
     class="cls-4"
     d="m 117.68,154.11 h -14.45 a 1.11,1.11 0 0 0 -1.13,1.13 v 10.68 a 1.12,1.12 0 0 0 1.13,1.13 h 14.45 a 1.12,1.12 0 0 0 1.13,-1.13 v -10.68 a 1.15,1.15 0 0 0 -1.13,-1.13 z m -6.52,7 v 1.45 a 0.74,0.74 0 0 1 -1.48,0 v -1.45 a 1.44,1.44 0 0 1 -0.74,-1.3 1.5,1.5 0 0 1 3,0 1.37,1.37 0 0 1 -0.78,1.31 z"
     id="path22"
     inkscape:connector-curvature="0"
     style="fill:#003a70" />
  <path
     class="cls-5"
     d="M 116.33,154.11 H 113 v -1.73 a 2.51,2.51 0 1 0 -5,0 v 1.73 h -3.35 v -1.73 a 5.86,5.86 0 1 1 11.71,0 z"
     id="path24"
     inkscape:connector-curvature="0"
     style="fill:#ffa400" />
  <path
     class="cls-5"
     d="m 101.76,152.52 h -3.49 a 1.025,1.025 0 0 1 0,-2.05 h 3.49 a 1.025,1.025 0 0 1 0,2.05 z"
     id="path26"
     inkscape:connector-curvature="0"
     style="fill:#ffa400" />
  <path
     class="cls-5"
     d="m 104.23,147 a 0.87,0.87 0 0 1 -0.63,-0.25 l -2.75,-2.26 a 1,1 0 0 1 -0.15,-1.44 1.06,1.06 0 0 1 1.45,-0.14 l 2.75,2.25 a 1.06,1.06 0 0 1 0.14,1.45 1.17,1.17 0 0 1 -0.81,0.39 z"
     id="path28"
     inkscape:connector-curvature="0"
     style="fill:#ffa400" />
  <path
     class="cls-5"
     d="m 110.47,144.62 a 1,1 0 0 1 -1,-1 v -3.53 a 1,1 0 0 1 2,0 v 3.53 a 1,1 0 0 1 -1,1 z"
     id="path30"
     inkscape:connector-curvature="0"
     style="fill:#ffa400" />
  <path
     class="cls-5"
     d="m 116.68,147 a 1,1 0 0 1 -0.78,-0.39 1.06,1.06 0 0 1 0.14,-1.45 l 2.75,-2.25 a 1.06,1.06 0 0 1 1.45,0.14 1,1 0 0 1 -0.14,1.44 l -2.75,2.26 a 1,1 0 0 1 -0.67,0.25 z"
     id="path32"
     inkscape:connector-curvature="0"
     style="fill:#ffa400" />
  <path
     class="cls-5"
     d="m 122.64,152.52 h -3.53 a 1.025,1.025 0 0 1 0,-2.05 h 3.53 a 1.025,1.025 0 0 1 0,2.05 z"
     id="path34"
     inkscape:connector-curvature="0"
     style="fill:#ffa400" />
  <path
     class="cls-6"
     d="M 41,222.56 A 11.54,11.54 0 1 1 29.45,211 11.54,11.54 0 0 1 41,222.56 Z"
     id="path36"
     inkscape:connector-curvature="0"
     style="fill:#58596c" />
  <path
     class="cls-7"
     d="M 40.13,218.2 H 18.76 a 11.54,11.54 0 1 0 21.37,0 z"
     id="path38"
     inkscape:connector-curvature="0"
     style="fill:#ff5856" />
  <path
     class="cls-8"
     d="m 41,221.89 c 0,-0.27 0,-0.54 -0.07,-0.81 h -7 v -2.47 h 6.37 c -0.1,-0.28 -0.21,-0.55 -0.33,-0.82 h -21 c -0.12,0.27 -0.23,0.54 -0.33,0.82 H 25 v 2.47 h -7 c 0,0.27 -0.06,0.54 -0.07,0.81 h 3 v 2.48 h -2.88 c 0,0.28 0.1,0.55 0.16,0.81 H 25 v 2.48 h -5.91 q 0.21,0.42 0.45,0.81 h 1.38 v 1.87 a 11.63,11.63 0 0 0 1.56,1.42 H 25 v 1.45 l 0.81,0.3 v -1.75 h 7.32 v 1.75 l 0.81,-0.3 v -1.45 h 2.5 A 11.63,11.63 0 0 0 38,230.34 v -1.87 h 1.38 a 7.89,7.89 0 0 0 0.44,-0.81 h -5.9 v -2.48 h 6.77 c 0.06,-0.26 0.12,-0.53 0.16,-0.81 H 38 v -2.48 z m -15.18,-3.28 h 7.32 v 2.47 h -7.35 z m -4.06,5.76 v -2.48 H 29 v 2.48 z M 29,231 h -7.27 v -2.48 H 29 Z m -3.25,-3.29 v -2.48 h 7.32 v 2.48 z m 11.38,0.81 V 231 h -7.27 v -2.48 z m 0,-4.1 h -7.27 v -2.48 h 7.31 z"
     id="path40"
     inkscape:connector-curvature="0"
     style="fill:#db4040" />
  <path
     class="cls-8"
     d="m 23.27,218.39 a 1.11,1.11 0 0 1 0,-0.19 h -4.51 a 11.56,11.56 0 0 0 4.51,14.11 z"
     id="path42"
     inkscape:connector-curvature="0"
     style="fill:#db4040" />
  <path
     class="cls-9"
     d="m 23.27,225.18 v -0.81 h -1.54 v -2.48 h 1.54 v -0.81 H 18 c 0,0.27 -0.06,0.54 -0.07,0.81 h 3 v 2.48 h -2.88 c 0,0.28 0.1,0.55 0.16,0.81 z"
     id="path44"
     inkscape:connector-curvature="0"
     style="fill:#cc3636" />
  <path
     class="cls-9"
     d="m 23.27,218.39 a 0.91,0.91 0 0 1 0.23,-0.6 h -4.56 c -0.12,0.27 -0.23,0.54 -0.33,0.82 h 4.66 z"
     id="path46"
     inkscape:connector-curvature="0"
     style="fill:#cc3636" />
  <path
     class="cls-9"
     d="m 23.27,231 h -1.54 v -2.48 h 1.54 v -0.81 h -4.18 q 0.21,0.42 0.45,0.81 h 1.38 v 1.87 a 11.63,11.63 0 0 0 1.56,1.42 h 0.79 z"
     id="path48"
     inkscape:connector-curvature="0"
     style="fill:#cc3636" />
  <path
     class="cls-10"
     d="m 36.13,221.35 -1.69,0.53 a 3.58,3.58 0 0 0 0.19,-4.54 5,5 0 0 1 -1.08,-2.66 0.29,0.29 0 0 0 -0.53,-0.13 6.92,6.92 0 0 0 -0.84,1.79 v 0 a 4.9,4.9 0 0 0 -1.36,-3.67 3.41,3.41 0 0 1 -1,-3 0.26,0.26 0 0 0 -0.12,-0.29 0.29,0.29 0 0 0 -0.32,0 8.93,8.93 0 0 0 -4.2,9.06 v 0 c 0,0.26 -0.15,0.18 -0.21,0.13 a 7.32,7.32 0 0 1 -1.13,-1.2 0.26,0.26 0 0 0 -0.27,-0.11 0.27,0.27 0 0 0 -0.23,0.19 8.88,8.88 0 0 0 0.64,7.44 6.26,6.26 0 0 0 5.62,2.82 c 4.2,0 6.5,-2.55 6.93,-6 a 0.28,0.28 0 0 0 -0.4,-0.36 z"
     id="path50"
     inkscape:connector-curvature="0"
     style="fill:#ffdc67" />
  <path
     class="cls-11"
     d="m 24.86,218.71 a 0.3,0.3 0 0 1 0.11,-0.14 v 0 a 7.32,7.32 0 0 1 -1.13,-1.2 0.26,0.26 0 0 0 -0.27,-0.11 0.27,0.27 0 0 0 -0.23,0.19 c -1.2,3.35 -0.41,7.66 2.7,9.41 a 8.56,8.56 0 0 1 -1.18,-8.15 z"
     id="path52"
     inkscape:connector-curvature="0"
     style="fill:#ffb456" />
  <path
     class="cls-11"
     d="m 25.15,218.42 a 0.31,0.31 0 0 1 0,0.1 0.3,0.3 0 0 1 0.23,0.11 7.36,7.36 0 0 0 1.13,1.21 c 0.06,0 0.21,0.12 0.21,-0.13 v 0 a 8.9,8.9 0 0 1 3.23,-8.37 3.18,3.18 0 0 1 -0.15,-1.68 0.26,0.26 0 0 0 -0.12,-0.29 0.29,0.29 0 0 0 -0.32,0 8.93,8.93 0 0 0 -4.2,9.06 z"
     id="path54"
     inkscape:connector-curvature="0"
     style="fill:#ffb456" />
  <path
     class="cls-11"
     d="m 33.34,224 -1,0.31 a 2.14,2.14 0 0 0 0.1,-2.7 3,3 0 0 1 -0.64,-1.58 0.17,0.17 0 0 0 -0.31,-0.08 3.93,3.93 0 0 0 -0.5,1.07 v 0 a 2.91,2.91 0 0 0 -0.81,-2.18 2,2 0 0 1 -0.58,-1.78 0.2,0.2 0 0 0 -0.07,-0.18 0.17,0.17 0 0 0 -0.19,0 5.3,5.3 0 0 0 -2.5,5.4 v 0 c 0,0.15 -0.11,0.08 -0.13,0.06 a 3.66,3.66 0 0 1 -0.67,-0.71 0.17,0.17 0 0 0 -0.3,0 c -0.77,2.15 -0.16,4.91 2,5.79 a 8.46,8.46 0 0 0 1.85,0.2 8.19,8.19 0 0 0 1.34,-0.1 3.78,3.78 0 0 0 2.65,-3.37 0.17,0.17 0 0 0 -0.24,-0.15 z"
     id="path56"
     inkscape:connector-curvature="0"
     style="fill:#ffb456" />
  <path
     class="cls-12"
     d="m 27,226.91 a 5.34,5.34 0 0 1 -0.38,-4.43 0.2,0.2 0 0 1 0.09,-0.09 h -0.05 a 3.66,3.66 0 0 1 -0.67,-0.71 0.17,0.17 0 0 0 -0.3,0 c -0.71,2 -0.25,4.54 1.59,5.58 A 3.58,3.58 0 0 1 27,226.91 Z"
     id="path58"
     inkscape:connector-curvature="0"
     style="fill:#fc974d" />
  <path
     class="cls-12"
     d="m 26.81,222.3 c 0,0 0,0 0,0.07 a 0.16,0.16 0 0 1 0.14,0.07 4.46,4.46 0 0 0 0.68,0.71 c 0,0 0.13,0.09 0.12,-0.06 a 5.33,5.33 0 0 1 1.92,-5 1.84,1.84 0 0 1 -0.09,-1 0.2,0.2 0 0 0 -0.07,-0.18 0.17,0.17 0 0 0 -0.19,0 5.3,5.3 0 0 0 -2.5,5.4 z"
     id="path60"
     inkscape:connector-curvature="0"
     style="fill:#fc974d" />
  <path
     class="cls-12"
     d="m 29.69,223.59 a 0.49,0.49 0 0 0 -0.64,0 2.7,2.7 0 0 0 0,4.06 v 0 h 0.56 0.05 a 2.7,2.7 0 0 0 0,-4.06 z"
     id="path62"
     inkscape:connector-curvature="0"
     style="fill:#fc974d" />
  <path
     class="cls-13"
     d="m 29.22,225.69 a 2.68,2.68 0 0 1 0.73,-1.85 3.07,3.07 0 0 0 -0.26,-0.25 0.49,0.49 0 0 0 -0.64,0 2.7,2.7 0 0 0 0,4.06 v 0 h 0.56 0.05 l 0.19,-0.18 a 2.69,2.69 0 0 1 -0.63,-1.78 z"
     id="path64"
     inkscape:connector-curvature="0"
     style="fill:#f47f31" />
  <path
     class="cls-14"
     d="m 41.64,310 c -1.29,0.67 -8,3.43 -9.43,4.18 a 3.22,3.22 0 0 1 -3.36,0.2 c -1.12,-0.54 -8.27,-3.43 -9.55,-4 -0.65,-0.31 -1,-0.57 -1,-0.82 v -2.45 c 0,0 9.3,-2 10.81,-2.56 a 3.8,3.8 0 0 1 3.3,-0.09 c 1.27,0.46 8.91,1.84 10.18,2.31 0,0 0,2.19 0,2.41 0,0.22 -0.29,0.51 -1,0.86"
     id="path66"
     inkscape:connector-curvature="0"
     style="fill:#912626" />
  <path
     class="cls-15"
     d="m 41.64,307.58 c -1.29,0.67 -8,3.43 -9.43,4.18 a 3.22,3.22 0 0 1 -3.36,0.2 c -1.12,-0.54 -8.27,-3.43 -9.55,-4 -1.28,-0.57 -1.32,-1 -0.05,-1.54 1.27,-0.54 8.36,-3.28 9.87,-3.82 a 3.8,3.8 0 0 1 3.3,-0.09 c 1.27,0.47 7.95,3.13 9.21,3.59 1.26,0.46 1.31,0.84 0,1.52"
     id="path68"
     inkscape:connector-curvature="0"
     style="fill:#c6302b" />
  <path
     class="cls-14"
     d="m 41.64,306.05 c -1.29,0.67 -8,3.43 -9.43,4.18 a 3.21,3.21 0 0 1 -3.36,0.19 c -1.12,-0.53 -8.27,-3.42 -9.55,-4 -0.65,-0.3 -1,-0.56 -1,-0.81 v -2.45 c 0,0 9.3,-2 10.81,-2.56 a 3.83,3.83 0 0 1 3.3,-0.1 c 1.27,0.47 8.91,1.85 10.18,2.31 0,0 0,2.2 0,2.42 0,0.22 -0.29,0.51 -1,0.86"
     id="path70"
     inkscape:connector-curvature="0"
     style="fill:#912626" />
  <path
     class="cls-15"
     d="m 41.64,303.61 c -1.29,0.67 -8,3.43 -9.43,4.18 a 3.21,3.21 0 0 1 -3.36,0.19 c -1.12,-0.53 -8.27,-3.42 -9.55,-4 -1.28,-0.58 -1.32,-1 -0.05,-1.53 1.27,-0.53 8.36,-3.28 9.87,-3.82 a 3.8,3.8 0 0 1 3.3,-0.09 c 1.27,0.47 7.95,3.12 9.21,3.59 1.26,0.47 1.31,0.84 0,1.52 v 0"
     id="path72"
     inkscape:connector-curvature="0"
     style="fill:#c6302b" />
  <path
     class="cls-14"
     d="m 41.64,301.93 c -1.29,0.67 -8,3.43 -9.43,4.18 a 3.22,3.22 0 0 1 -3.36,0.2 c -1.12,-0.54 -8.27,-3.43 -9.55,-4 -0.65,-0.31 -1,-0.57 -1,-0.82 V 299 c 0,0 9.3,-2 10.81,-2.56 a 3.8,3.8 0 0 1 3.3,-0.09 c 1.27,0.46 8.91,1.84 10.18,2.31 0,0 0,2.19 0,2.42 0,0.23 -0.29,0.5 -1,0.85"
     id="path74"
     inkscape:connector-curvature="0"
     style="fill:#912626" />
  <path
     class="cls-15"
     d="m 41.64,299.49 c -1.29,0.67 -8,3.43 -9.43,4.18 a 3.22,3.22 0 0 1 -3.36,0.2 c -1.12,-0.54 -8.27,-3.43 -9.55,-4 -1.28,-0.57 -1.32,-1 -0.05,-1.54 1.27,-0.54 8.36,-3.28 9.87,-3.82 a 3.8,3.8 0 0 1 3.3,-0.09 c 1.27,0.47 7.95,3.13 9.21,3.59 1.26,0.46 1.31,0.84 0,1.52"
     id="path76"
     inkscape:connector-curvature="0"
     style="fill:#c6302b" />
  <path
     class="cls-3"
     d="m 33.42,297.1 -2.09,0.22 -0.46,1.12 -0.76,-1.25 -2.41,-0.19 1.8,-0.65 -0.54,-1 1.68,0.65 1.59,-0.52 -0.43,1 1.62,0.61"
     id="path78"
     inkscape:connector-curvature="0"
     style="fill:#ffffff" />
  <path
     class="cls-3"
     d="m 30.74,302.56 -3.89,-1.62 5.58,-0.86 -1.69,2.48"
     id="path80"
     inkscape:connector-curvature="0"
     style="fill:#ffffff" />
  <path
     class="cls-3"
     d="m 25.34,297.73 c 1.65,0 3,0.51 3,1.15 0,0.64 -1.34,1.12 -3,1.12 -1.66,0 -3,-0.52 -3,-1.16 0,-0.64 1.33,-1.15 3,-1.15"
     id="path82"
     inkscape:connector-curvature="0"
     style="fill:#ffffff" />
  <path
     class="cls-16"
     d="m 35.89,297.41 3.3,1.3 -3.3,1.29 v -2.61"
     id="path84"
     inkscape:connector-curvature="0"
     style="fill:#000000" />
  <path
     class="cls-17"
     d="m 32.23,298.85 3.66,-1.44 V 300 l -0.36,0.14 -3.3,-1.31"
     id="path86"
     inkscape:connector-curvature="0"
     style="fill:#9a2928" />
  <path
     class="cls-18"
     d="m 45.8,337.05 c -0.45,0 -0.3,0.14 -1.27,0.38 a 19.54,19.54 0 0 0 -3.22,0.61 c -3.13,1.31 -3.76,5.8 -6.61,7.41 -2.13,1.21 -4.28,1.3 -6.21,1.91 a 11.4,11.4 0 0 0 -3.81,2.2 c -0.89,0.77 -0.92,1.45 -1.85,2.42 -0.93,0.97 -4,0 -5.31,1.59 0.43,0.44 0.62,0.57 1.48,0.45 -0.18,0.34 -1.22,0.62 -1,1.11 0.22,0.49 2.74,0.87 5,-0.51 1.06,-0.64 1.91,-1.57 3.57,-1.79 a 27.38,27.38 0 0 1 7.12,0.54 11.3,11.3 0 0 1 -1.7,2.71 c -0.19,0.2 0.37,0.22 1,0.1 a 10,10 0 0 0 2.81,-1 c 1,-0.61 1.21,-2.18 2.5,-2.52 a 2.88,2.88 0 0 0 3.89,0.48 c -1.07,-0.3 -1.36,-2.57 -1,-3.57 0.36,-1 0.68,-2.45 1,-3.7 0.32,-1.25 0.5,-3 1,-3.72 a 8.86,8.86 0 0 1 2,-2 2.89,2.89 0 0 0 1.22,-2.47 c 0,-0.43 -0.23,-0.66 -0.64,-0.65 z"
     id="path88"
     inkscape:connector-curvature="0"
     style="fill:#002b64" />
  <path
     class="cls-19"
     d="m 18.44,355 a 6.44,6.44 0 0 0 3.94,-0.57 c 1.11,-0.48 2.19,-1.48 3.5,-1.9 1.94,-0.62 4.06,0 6.12,0.12 a 9.36,9.36 0 0 0 1.5,0 c 0.77,-0.47 0.75,-2.24 1.5,-2.41 a 8.52,8.52 0 0 1 -2.1,5.41 6,6 0 0 0 4.49,-3.42 12.26,12.26 0 0 0 0.72,-1.69 c 0.32,0.25 0.14,1 0.3,1.41 1.55,-0.86 2.43,-2.83 3,-4.82 0.67,-2.29 1,-4.62 1.39,-5.3 a 5.65,5.65 0 0 1 1.7,-1.5 2.74,2.74 0 0 0 1.41,-1.91 c -0.73,-0.07 -0.9,-0.24 -1,-0.6 a 2.17,2.17 0 0 1 -1.07,0.26 c -0.33,0 -0.69,0 -1.13,0 -3.64,0.37 -4.1,4.38 -6.43,6.66 a 6.09,6.09 0 0 1 -0.55,0.46 11.82,11.82 0 0 1 -2.74,1.4 c -1.49,0.57 -2.91,0.61 -4.31,1.1 a 12.59,12.59 0 0 0 -2.91,1.46 c -0.21,0.15 -0.41,0.29 -0.6,0.44 a 6,6 0 0 0 -1.12,1.4 8.45,8.45 0 0 1 -1.12,1.43 c -0.77,0.76 -3.66,0.23 -4.67,0.93 a 0.8,0.8 0 0 0 -0.27,0.28 c 0.56,0.26 0.93,0.1 1.56,0.17 0.09,0.61 -1.31,1 -1.11,1.25 z"
     id="path90"
     inkscape:connector-curvature="0"
     style="fill:#d77758" />
  <path
     class="cls-19"
     d="m 40.49,350.67 a 5.28,5.28 0 0 0 0.8,2.41 2.49,2.49 0 0 1 -2.21,-0.6 c 0.16,-0.71 0.99,-1.36 1.41,-1.81 z"
     id="path92"
     inkscape:connector-curvature="0"
     style="fill:#000000" />
  <path
     class="cls-18"
     d="m 41.51,339.64 a 0.85,0.85 0 0 0 1.4,-0.8 c -0.8,-0.06 -1.26,0.21 -1.4,0.8 z"
     id="path94"
     inkscape:connector-curvature="0"
     style="fill:#000000" />
  <path
     class="cls-18"
     d="m 45.1,338.6 a 2.67,2.67 0 0 0 -0.4,1.39 c 0,0.13 -0.09,0.21 -0.09,0 A 2.71,2.71 0 0 1 45,338.56 c 0.1,-0.15 0.15,-0.08 0.1,0.04 z"
     id="path96"
     inkscape:connector-curvature="0"
     style="fill:#000000" />
  <path
     class="cls-18"
     d="m 45,338.5 a 3.23,3.23 0 0 0 -0.61,1.5 c 0,0.12 -0.12,0.2 -0.1,0 a 3.37,3.37 0 0 1 0.62,-1.55 C 45,338.31 45,338.38 45,338.5 Z"
     id="path98"
     inkscape:connector-curvature="0"
     style="fill:#000000" />
  <path
     class="cls-18"
     d="m 44.84,338.35 a 3.79,3.79 0 0 0 -0.91,1.58 c 0,0.13 -0.13,0.2 -0.1,0 a 4.2,4.2 0 0 1 0.91,-1.62 c 0.12,-0.15 0.17,-0.07 0.1,0.04 z"
     id="path100"
     inkscape:connector-curvature="0"
     style="fill:#000000" />
  <path
     class="cls-18"
     d="m 44.73,338.19 a 5.33,5.33 0 0 0 -1.16,1.69 c 0,0.12 -0.16,0.18 -0.1,0 a 5.27,5.27 0 0 1 1.17,-1.73 c 0.14,-0.13 0.17,-0.05 0.09,0.05 z"
     id="path102"
     inkscape:connector-curvature="0"
     style="fill:#000000" />
  <text
     class="cls-20"
     id="text108"
     style="font-size:12px;font-family:Tahoma;fill:#ffffff;"
     x="78.699997"
     y="390.75">CON<tspan
   class="cls-21"
   x="102.41"
   y="390.75"
   id="tspan104"
   style="letter-spacing:-0.06em;fill:#ffffff;">T</tspan>
<tspan
   x="108.74"
   y="390.75"
   id="tspan106"
   style="fill:#ffffff;">AINER</tspan>
</text>
  <path
     class="cls-22"
     d="m 40.12,261.92 -6.73,-6.73 -2.87,3.64 3.09,3.09 a 0.73,0.73 0 0 1 0,1 l -0.89,0.9 0.63,0.95 a 1.11,1.11 0 0 1 -0.22,1.24 l -7,5.4 c 0,1.81 0,5.54 0,5.54 l 14,-14 a 0.73,0.73 0 0 0 -0.01,-1.03 z"
     id="path110"
     inkscape:connector-curvature="0"
     style="fill:#5e8cda" />
  <path
     class="cls-23"
     d="m 24.48,262.77 a 0.73,0.73 0 0 1 0,-1 l 0.89,-0.89 -0.61,-0.88 a 1,1 0 0 1 0.2,-1.31 l 7,-5.41 v -5.53 0 l -14,14 a 0.75,0.75 0 0 0 0,1 l 6.74,6.74 2.87,-3.65 z"
     id="path112"
     inkscape:connector-curvature="0"
     style="fill:#093071" />
  <polygon
     class="cls-3"
     points="29.16,267.22 25.91,270.48 "
     id="polygon114"
     style="fill:#ffffff" />
  <path
     class="cls-22"
     d="m 35.55,251.08 a 0.27,0.27 0 0 1 0.23,0.14 c 0.07,0.16 0,0.3 -0.12,0.42 l -6.17,7.83 a 0.43,0.43 0 0 0 0,0.45 l 3.45,5 a 0.83,0.83 0 0 1 -0.16,0.94 l -9.91,7.61 a 0.48,0.48 0 0 1 -0.32,0.14 0.26,0.26 0 0 1 -0.22,-0.14 0.4,0.4 0 0 1 0.12,-0.42 l 6.17,-7.83 a 0.43,0.43 0 0 0 0,-0.45 l -3.44,-4.95 a 0.72,0.72 0 0 1 0.15,-1 l 9.92,-7.62 a 0.5,0.5 0 0 1 0.31,-0.14 m 0,-0.13 a 0.65,0.65 0 0 0 -0.39,0.17 l -9.92,7.62 a 0.85,0.85 0 0 0 -0.17,1.15 l 3.44,4.95 a 0.32,0.32 0 0 1 0,0.3 L 22.33,273 a 0.54,0.54 0 0 0 -0.14,0.56 0.44,0.44 0 0 0 0.33,0.21 0.62,0.62 0 0 0 0.4,-0.17 l 9.92,-7.6 a 1,1 0 0 0 0.18,-1.12 l -3.44,-5 a 0.29,0.29 0 0 1 0,-0.3 l 6.17,-7.83 a 0.51,0.51 0 0 0 0.13,-0.55 0.39,0.39 0 0 0 -0.34,-0.22 z"
     id="path116"
     inkscape:connector-curvature="0"
     style="fill:#5e8cda" />
  <path
     class="cls-24"
     d="m 32.67,264.93 c 0.08,0.13 0.15,0.58 -0.05,0.74 l -9.92,7.61 a 0.44,0.44 0 0 1 -0.16,0.09 c 0,0 0,-0.06 0.08,-0.17 l 6.17,-7.83 a 0.68,0.68 0 0 0 0,-0.74 l -3.44,-4.95 c 0,0 7.24,5.13 7.32,5.25 z"
     id="path118"
     inkscape:connector-curvature="0"
     style="fill:#f5cd21" />
  <path
     class="cls-25"
     d="m 32.67,264.93 -3.39,-4.87 a 0.66,0.66 0 0 1 0,-0.74 l 6.16,-7.82 c 0.1,-0.12 0.12,-0.18 0.09,-0.18 -0.03,0 -0.08,0 -0.16,0.1 l -9.9,7.58 a 0.47,0.47 0 0 0 -0.1,0.65 z"
     id="path120"
     inkscape:connector-curvature="0"
     style="fill:#fddd75" />
  <text
     class="cls-26"
     id="text132"
     style="font-size:14px;font-family:Tahoma;fill:#000000;"
     x="57.549999"
     y="186.39">Le<tspan
   class="cls-27"
   x="71.879997"
   y="186.39"
   id="tspan122"
   style="letter-spacing:0.01em;fill:#000000;">t</tspan>
<tspan
   class="cls-28"
   x="76.690002"
   y="186.39"
   id="tspan124"
   style="letter-spacing:-0.03em;fill:#000000;">’</tspan>
<tspan
   x="79.18"
   y="186.39"
   id="tspan126"
   style="fill:#000000;">s Encrypt</tspan>
<tspan
   class="cls-29"
   x="140.74001"
   y="186.39"
   id="tspan128"
   style="letter-spacing:-0.01em;fill:#000000;">S</tspan>
<tspan
   x="148.38"
   y="186.39"
   id="tspan130"
   style="fill:#000000;">SL</tspan>
</text>
  <text
     class="cls-26"
     id="text150"
     style="font-size:14px;font-family:Tahoma;fill:#000000;"
     x="56.93"
     y="227.71001">
    <tspan
       class="cls-30"
       id="tspan134"
       style="letter-spacing:-0.04em;fill:#000000;">W</tspan>
    <tspan
       x="69.040001"
       y="227.71001"
       id="tspan136"
       style="fill:#000000;">eb App Fi</tspan>
    <tspan
       class="cls-31"
       x="127.26"
       y="227.71001"
       id="tspan138"
       style="letter-spacing:0em;fill:#000000;">r</tspan>
    <tspan
       x="132.23999"
       y="227.71001"
       id="tspan140"
       style="fill:#000000;">e</tspan>
    <tspan
       class="cls-32"
       x="139.61"
       y="227.71001"
       id="tspan142"
       style="letter-spacing:-0.01em;fill:#000000;">w</tspan>
    <tspan
       x="149.87999"
       y="227.71001"
       id="tspan144"
       style="fill:#000000;">a</tspan>
    <tspan
       class="cls-33"
       x="157.23"
       y="227.71001"
       id="tspan146"
       style="letter-spacing:0em;fill:#000000;">l</tspan>
    <tspan
       x="160.47"
       y="227.71001"
       id="tspan148"
       style="fill:#000000;">l</tspan>
  </text>
  <text
     class="cls-26"
     id="text168"
     style="font-size:14px;font-family:Tahoma;fill:#000000;"
     x="56.540001"
     y="266.53">L<tspan
   class="cls-34"
   x="63.509998"
   y="266.53"
   id="tspan152"
   style="letter-spacing:0em;fill:#000000;">i</tspan>
<tspan
   x="66.730003"
   y="266.53"
   id="tspan154"
   style="fill:#000000;">teSpeed</tspan>
<tspan
   class="cls-30"
   x="121.17"
   y="266.53"
   id="tspan156"
   style="letter-spacing:-0.04em;fill:#000000;">W</tspan>
<tspan
   x="133.28"
   y="266.53"
   id="tspan158"
   style="fill:#000000;">eb</tspan>
<tspan
   class="cls-34"
   x="152.75999"
   y="266.53"
   id="tspan160"
   style="letter-spacing:0em;fill:#000000;">S</tspan>
<tspan
   x="160.59"
   y="266.53"
   id="tspan162"
   style="fill:#000000;">er</tspan>
<tspan
   class="cls-35"
   x="173"
   y="266.53"
   id="tspan164"
   style="letter-spacing:-0.01em;fill:#000000;">v</tspan>
<tspan
   x="179.87"
   y="266.53"
   id="tspan166"
   style="fill:#000000;">er</tspan>
</text>
  <text
     class="cls-26"
     id="text174"
     style="font-size:14px;font-family:Tahoma;fill:#000000;"
     x="56.790001"
     y="309.53">
    <tspan
       class="cls-36"
       id="tspan170"
       style="letter-spacing:-0.02em;fill:#000000;">R</tspan>
    <tspan
       x="65.230003"
       y="309.53"
       id="tspan172"
       style="fill:#000000;">edis Object Cache</tspan>
  </text>
  <text
     class="cls-26"
     id="text176"
     style="font-size:14px;font-family:Tahoma;fill:#000000;"
     x="57.110001"
     y="349.16">MariaDB (Primary)</text>
  <path
     class="cls-1"
     d="m 468.48,157.52 a 5,5 0 0 1 5,5 v 229.85 a 5,5 0 0 1 -5,5 H 269.23 a 5,5 0 0 1 -5,-5 V 162.52 a 5,5 0 0 1 5,-5 h 199.25 m 0,-2 H 269.23 a 7,7 0 0 0 -7,7 v 229.85 a 7,7 0 0 0 7,7 h 199.25 a 7,7 0 0 0 7,-7 V 162.52 a 7,7 0 0 0 -7,-7 z"
     id="path178"
     inkscape:connector-curvature="0"
     style="fill:#7889a8" />
  <path
     class="cls-2"
     d="m 264.23,375.37 h 209.25 v 17 a 5,5 0 0 1 -5,5 H 269.23 a 5,5 0 0 1 -5,-5 z"
     id="path180"
     inkscape:connector-curvature="0"
     style="fill:#5b6b8d" />
  <path
     class="cls-3"
     d="m 370.92,154.43 h -1.36 v -1.73 a 5.86,5.86 0 0 0 -11.71,0 v 1.73 h -1.39 a 1.11,1.11 0 0 0 -1.13,1.13 v 10.68 a 1.11,1.11 0 0 0 1.13,1.13 h 14.46 a 1.11,1.11 0 0 0 1.12,-1.13 v -10.68 a 1.15,1.15 0 0 0 -1.12,-1.13 z m -6.53,7 v 1.44 a 0.74,0.74 0 1 1 -1.48,0 v -1.44 a 1.46,1.46 0 0 1 -0.74,-1.31 1.5,1.5 0 0 1 3,0 1.38,1.38 0 0 1 -0.78,1.33 z m -3.19,-7 v -1.73 a 2.51,2.51 0 0 1 5,0 v 1.73 z"
     id="path182"
     inkscape:connector-curvature="0"
     style="fill:#ffffff" />
  <path
     class="cls-3"
     d="m 356,151.82 a 1,1 0 0 0 -1,-1 h -3.5 a 1,1 0 1 0 0,2 h 3.5 a 1,1 0 0 0 1,-1 z"
     id="path184"
     inkscape:connector-curvature="0"
     style="fill:#ffffff" />
  <path
     class="cls-3"
     d="m 356.83,147.09 a 0.87,0.87 0 0 0 0.63,0.25 1.15,1.15 0 0 0 0.81,-0.39 1,1 0 0 0 -0.14,-1.44 l -2.75,-2.26 a 1.0269007,1.0269007 0 0 0 -1.3,1.59 z"
     id="path186"
     inkscape:connector-curvature="0"
     style="fill:#ffffff" />
  <path
     class="cls-3"
     d="m 363.7,144.94 a 1,1 0 0 0 1,-1 v -3.53 a 1.025,1.025 0 0 0 -2.05,0 v 3.53 a 1,1 0 0 0 1.05,1 z"
     id="path188"
     inkscape:connector-curvature="0"
     style="fill:#ffffff" />
  <path
     class="cls-3"
     d="m 369.91,147.34 a 1,1 0 0 0 0.67,-0.25 l 2.75,-2.25 a 1.0269007,1.0269007 0 0 0 -1.3,-1.59 l -2.75,2.26 a 1,1 0 0 0 -0.14,1.44 1,1 0 0 0 0.77,0.39 z"
     id="path190"
     inkscape:connector-curvature="0"
     style="fill:#ffffff" />
  <path
     class="cls-3"
     d="m 375.87,150.8 h -3.53 a 1,1 0 1 0 0,2 h 3.53 a 1,1 0 1 0 0,-2 z"
     id="path192"
     inkscape:connector-curvature="0"
     style="fill:#ffffff" />
  <path
     class="cls-4"
     d="m 370.92,154.43 h -14.46 a 1.11,1.11 0 0 0 -1.13,1.13 v 10.68 a 1.11,1.11 0 0 0 1.13,1.13 h 14.46 a 1.11,1.11 0 0 0 1.12,-1.13 v -10.68 a 1.15,1.15 0 0 0 -1.12,-1.13 z m -6.53,7 v 1.44 a 0.74,0.74 0 1 1 -1.48,0 v -1.44 a 1.46,1.46 0 0 1 -0.74,-1.31 1.5,1.5 0 0 1 3,0 1.38,1.38 0 0 1 -0.78,1.33 z"
     id="path194"
     inkscape:connector-curvature="0"
     style="fill:#003a70" />
  <path
     class="cls-5"
     d="m 369.56,154.43 h -3.35 v -1.73 a 2.51,2.51 0 0 0 -5,0 v 1.73 h -3.35 v -1.73 a 5.86,5.86 0 0 1 11.71,0 z"
     id="path196"
     inkscape:connector-curvature="0"
     style="fill:#ffa400" />
  <path
     class="cls-5"
     d="m 355,152.84 h -3.5 a 1,1 0 1 1 0,-2 h 3.5 a 1,1 0 1 1 0,2 z"
     id="path198"
     inkscape:connector-curvature="0"
     style="fill:#ffa400" />
  <path
     class="cls-5"
     d="m 357.46,147.34 a 0.87,0.87 0 0 1 -0.63,-0.25 l -2.75,-2.25 a 1.0269007,1.0269007 0 0 1 1.3,-1.59 l 2.75,2.26 a 1,1 0 0 1 0.14,1.44 1.15,1.15 0 0 1 -0.81,0.39 z"
     id="path200"
     inkscape:connector-curvature="0"
     style="fill:#ffa400" />
  <path
     class="cls-5"
     d="m 363.7,144.94 a 1,1 0 0 1 -1,-1 v -3.53 a 1.025,1.025 0 0 1 2.05,0 v 3.53 a 1,1 0 0 1 -1.05,1 z"
     id="path202"
     inkscape:connector-curvature="0"
     style="fill:#ffa400" />
  <path
     class="cls-5"
     d="m 369.91,147.34 a 1,1 0 0 1 -0.77,-0.39 1,1 0 0 1 0.14,-1.44 l 2.75,-2.26 a 1.0269007,1.0269007 0 0 1 1.3,1.59 l -2.75,2.25 a 1,1 0 0 1 -0.67,0.25 z"
     id="path204"
     inkscape:connector-curvature="0"
     style="fill:#ffa400" />
  <path
     class="cls-5"
     d="m 375.87,152.84 h -3.53 a 1,1 0 1 1 0,-2 h 3.53 a 1,1 0 1 1 0,2 z"
     id="path206"
     inkscape:connector-curvature="0"
     style="fill:#ffa400" />
  <path
     class="cls-6"
     d="m 303.22,222.89 a 11.54,11.54 0 1 1 -11.54,-11.54 11.54,11.54 0 0 1 11.54,11.54 z"
     id="path208"
     inkscape:connector-curvature="0"
     style="fill:#58596c" />
  <path
     class="cls-7"
     d="M 302.37,218.52 H 281 a 11.54,11.54 0 1 0 21.37,0 z"
     id="path210"
     inkscape:connector-curvature="0"
     style="fill:#ff5856" />
  <path
     class="cls-8"
     d="m 303.2,222.22 c 0,-0.28 0,-0.55 -0.07,-0.81 h -7 v -2.48 h 6.37 q -0.15,-0.42 -0.33,-0.81 h -21 q -0.18,0.39 -0.33,0.81 h 6.37 v 2.48 h -7 c 0,0.26 -0.06,0.53 -0.08,0.81 h 3 v 2.48 h -2.87 c 0.05,0.27 0.1,0.54 0.16,0.81 h 6.77 V 228 h -5.88 a 9.27,9.27 0 0 0 0.44,0.82 h 1.38 v 1.86 a 12.42,12.42 0 0 0 1.56,1.43 h 2.5 v 1.44 c 0.27,0.11 0.54,0.21 0.82,0.3 v -1.74 h 7.31 v 1.74 q 0.41,-0.14 0.81,-0.3 v -1.44 h 2.5 a 11.76,11.76 0 0 0 1.56,-1.43 v -1.88 h 1.39 c 0.15,-0.27 0.3,-0.54 0.44,-0.82 h -5.89 v -2.47 h 6.77 a 7.73,7.73 0 0 0 0.16,-0.81 h -2.87 v -2.48 z M 288,218.93 h 7.31 v 2.48 H 288 Z m -4,5.77 v -2.48 h 7.32 v 2.48 z m 7.32,6.57 H 284 v -2.47 h 7.32 z M 288,228 v -2.47 h 7.31 V 228 Z m 11.37,0.82 v 2.47 h -7.31 v -2.49 z m 0,-4.1 h -7.31 v -2.48 h 7.31 z"
     id="path212"
     inkscape:connector-curvature="0"
     style="fill:#db4040" />
  <path
     class="cls-8"
     d="m 285.5,218.71 a 1.11,1.11 0 0 1 0,-0.19 H 281 a 11.53,11.53 0 0 0 4.5,14.11 z"
     id="path214"
     inkscape:connector-curvature="0"
     style="fill:#db4040" />
  <path
     class="cls-9"
     d="M 285.5,225.51 V 224.7 H 284 v -2.48 h 1.54 v -0.81 h -5.26 c 0,0.26 -0.06,0.53 -0.08,0.81 h 3 v 2.48 h -2.87 c 0.05,0.27 0.1,0.54 0.16,0.81 z"
     id="path216"
     inkscape:connector-curvature="0"
     style="fill:#cc3636" />
  <path
     class="cls-9"
     d="m 285.5,218.71 a 0.83,0.83 0 0 1 0.24,-0.59 h -4.57 q -0.18,0.39 -0.33,0.81 h 4.66 z"
     id="path218"
     inkscape:connector-curvature="0"
     style="fill:#cc3636" />
  <path
     class="cls-9"
     d="M 285.5,231.27 H 284 v -2.47 h 1.54 V 228 h -4.17 a 9.27,9.27 0 0 0 0.44,0.82 h 1.38 v 1.86 a 12.42,12.42 0 0 0 1.56,1.43 h 0.79 z"
     id="path220"
     inkscape:connector-curvature="0"
     style="fill:#cc3636" />
  <path
     class="cls-10"
     d="m 298.36,221.67 -1.69,0.53 a 3.58,3.58 0 0 0 0.19,-4.54 5,5 0 0 1 -1.08,-2.66 0.29,0.29 0 0 0 -0.53,-0.13 7.08,7.08 0 0 0 -0.84,1.79 v 0 A 5,5 0 0 0 293,213 a 3.38,3.38 0 0 1 -1,-3 0.3,0.3 0 0 0 -0.13,-0.3 0.29,0.29 0 0 0 -0.32,0 8.93,8.93 0 0 0 -4.2,9.06 v 0 c 0,0.26 -0.15,0.18 -0.21,0.13 a 7.32,7.32 0 0 1 -1.13,-1.2 0.26,0.26 0 0 0 -0.27,-0.11 0.27,0.27 0 0 0 -0.23,0.19 8.88,8.88 0 0 0 0.64,7.44 6.26,6.26 0 0 0 5.65,2.79 c 4.2,0 6.5,-2.54 6.94,-6 a 0.29,0.29 0 0 0 -0.38,-0.33 z"
     id="path222"
     inkscape:connector-curvature="0"
     style="fill:#ffdc67" />
  <path
     class="cls-11"
     d="m 287.09,219 a 0.49,0.49 0 0 1 0.11,-0.14 v 0 a 7.32,7.32 0 0 1 -1.13,-1.2 0.26,0.26 0 0 0 -0.27,-0.11 0.27,0.27 0 0 0 -0.23,0.19 c -1.2,3.35 -0.41,7.67 2.7,9.42 A 8.58,8.58 0 0 1 287.09,219 Z"
     id="path224"
     inkscape:connector-curvature="0"
     style="fill:#ffb456" />
  <path
     class="cls-11"
     d="m 287.38,218.74 a 0.31,0.31 0 0 1 0,0.1 0.27,0.27 0 0 1 0.23,0.12 7.74,7.74 0 0 0 1.13,1.2 c 0.06,0 0.21,0.12 0.21,-0.13 v 0 a 8.9,8.9 0 0 1 3.23,-8.37 3,3 0 0 1 -0.18,-1.66 0.3,0.3 0 0 0 -0.13,-0.3 0.29,0.29 0 0 0 -0.32,0 8.93,8.93 0 0 0 -4.2,9.06 z"
     id="path226"
     inkscape:connector-curvature="0"
     style="fill:#ffb456" />
  <path
     class="cls-11"
     d="m 295.57,224.35 -1,0.32 a 2.15,2.15 0 0 0 0.11,-2.71 3,3 0 0 1 -0.65,-1.58 0.17,0.17 0 0 0 -0.31,-0.07 4.07,4.07 0 0 0 -0.5,1.06 v 0 a 2.91,2.91 0 0 0 -0.81,-2.18 2,2 0 0 1 -0.58,-1.78 0.18,0.18 0 0 0 -0.07,-0.18 0.17,0.17 0 0 0 -0.19,0 5.3,5.3 0 0 0 -2.5,5.4 v 0 c 0,0.15 -0.11,0.08 -0.13,0.07 a 4.9,4.9 0 0 1 -0.67,-0.72 0.17,0.17 0 0 0 -0.3,0.05 c -0.77,2.15 -0.16,4.91 2,5.79 a 8,8 0 0 0 1.85,0.2 9.52,9.52 0 0 0 1.34,-0.09 3.79,3.79 0 0 0 2.65,-3.38 0.17,0.17 0 0 0 -0.24,-0.2 z"
     id="path228"
     inkscape:connector-curvature="0"
     style="fill:#ffb456" />
  <path
     class="cls-12"
     d="m 289.26,227.23 a 5.28,5.28 0 0 1 -0.39,-4.42 0.18,0.18 0 0 1 0.09,-0.1 v 0 a 4.9,4.9 0 0 1 -0.67,-0.72 0.17,0.17 0 0 0 -0.3,0.05 c -0.71,2 -0.24,4.54 1.59,5.59 a 2.6,2.6 0 0 1 -0.32,-0.4 z"
     id="path230"
     inkscape:connector-curvature="0"
     style="fill:#fc974d" />
  <path
     class="cls-12"
     d="m 289,222.62 c 0,0 0,0.06 0,0.07 a 0.18,0.18 0 0 1 0.15,0.07 3.66,3.66 0 0 0 0.67,0.71 c 0,0 0.13,0.09 0.12,-0.06 a 5.31,5.31 0 0 1 1.93,-5 1.8,1.8 0 0 1 -0.1,-1 0.18,0.18 0 0 0 -0.07,-0.18 0.17,0.17 0 0 0 -0.19,0 5.3,5.3 0 0 0 -2.5,5.4 z"
     id="path232"
     inkscape:connector-curvature="0"
     style="fill:#fc974d" />
  <path
     class="cls-12"
     d="m 291.93,223.91 a 0.5,0.5 0 0 0 -0.65,0 2.72,2.72 0 0 0 0,4.06 v 0 h 0.55 0.06 a 2.72,2.72 0 0 0 0,-4.06 z"
     id="path234"
     inkscape:connector-curvature="0"
     style="fill:#fc974d" />
  <path
     class="cls-13"
     d="m 291.45,226 a 2.7,2.7 0 0 1 0.73,-1.85 3,3 0 0 0 -0.25,-0.25 0.5,0.5 0 0 0 -0.65,0 2.72,2.72 0 0 0 0,4.06 v 0 h 0.55 0.06 l 0.18,-0.18 A 2.67,2.67 0 0 1 291.45,226 Z"
     id="path236"
     inkscape:connector-curvature="0"
     style="fill:#f47f31" />
  <path
     class="cls-14"
     d="m 303.88,310.34 c -1.3,0.67 -8,3.43 -9.44,4.18 a 3.2,3.2 0 0 1 -3.35,0.2 c -1.13,-0.54 -8.28,-3.43 -9.56,-4 -0.65,-0.31 -1,-0.57 -1,-0.81 v -2.46 c 0,0 9.3,-2 10.8,-2.56 a 3.8,3.8 0 0 1 3.3,-0.09 c 1.28,0.47 8.91,1.84 10.18,2.31 v 2.42 c 0,0.24 -0.29,0.51 -0.95,0.85"
     id="path238"
     inkscape:connector-curvature="0"
     style="fill:#912626" />
  <path
     class="cls-15"
     d="m 303.88,307.9 c -1.3,0.67 -8,3.43 -9.44,4.18 a 3.2,3.2 0 0 1 -3.35,0.2 c -1.13,-0.54 -8.28,-3.43 -9.56,-4 -1.28,-0.57 -1.32,-1 0,-1.54 1.32,-0.54 8.37,-3.28 9.87,-3.82 a 3.83,3.83 0 0 1 3.3,-0.09 c 1.27,0.47 8,3.13 9.21,3.59 1.21,0.46 1.31,0.84 0,1.52"
     id="path240"
     inkscape:connector-curvature="0"
     style="fill:#c6302b" />
  <path
     class="cls-14"
     d="m 303.88,306.37 c -1.3,0.67 -8,3.43 -9.44,4.18 a 3.2,3.2 0 0 1 -3.35,0.2 c -1.13,-0.54 -8.28,-3.43 -9.56,-4 -0.65,-0.31 -1,-0.57 -1,-0.82 v -2.45 c 0,0 9.3,-2 10.8,-2.56 a 3.8,3.8 0 0 1 3.3,-0.09 c 1.28,0.46 8.91,1.84 10.18,2.31 v 2.42 c 0,0.24 -0.29,0.5 -0.95,0.85"
     id="path242"
     inkscape:connector-curvature="0"
     style="fill:#912626" />
  <path
     class="cls-15"
     d="m 303.88,303.93 c -1.3,0.67 -8,3.43 -9.44,4.18 a 3.2,3.2 0 0 1 -3.35,0.2 c -1.13,-0.54 -8.28,-3.43 -9.56,-4 -1.28,-0.57 -1.32,-1 0,-1.54 1.32,-0.54 8.37,-3.28 9.87,-3.82 a 3.8,3.8 0 0 1 3.3,-0.09 c 1.27,0.47 8,3.13 9.21,3.59 1.21,0.46 1.31,0.84 0,1.52 v 0"
     id="path244"
     inkscape:connector-curvature="0"
     style="fill:#c6302b" />
  <path
     class="cls-14"
     d="m 303.88,302.25 c -1.3,0.67 -8,3.43 -9.44,4.18 a 3.18,3.18 0 0 1 -3.35,0.2 c -1.13,-0.54 -8.28,-3.43 -9.56,-4 -0.65,-0.31 -1,-0.57 -1,-0.81 v -2.46 c 0,0 9.3,-2 10.8,-2.56 a 3.8,3.8 0 0 1 3.3,-0.09 c 1.28,0.47 8.91,1.84 10.18,2.31 v 2.42 c 0,0.24 -0.29,0.51 -0.95,0.85"
     id="path246"
     inkscape:connector-curvature="0"
     style="fill:#912626" />
  <path
     class="cls-15"
     d="m 303.88,299.81 c -1.3,0.67 -8,3.43 -9.44,4.18 a 3.2,3.2 0 0 1 -3.35,0.2 c -1.13,-0.54 -8.28,-3.43 -9.56,-4 -1.28,-0.57 -1.32,-1 0,-1.54 1.32,-0.54 8.37,-3.28 9.87,-3.82 a 3.87,3.87 0 0 1 3.3,-0.09 c 1.27,0.47 8,3.13 9.21,3.59 1.21,0.46 1.31,0.84 0,1.52"
     id="path248"
     inkscape:connector-curvature="0"
     style="fill:#c6302b" />
  <path
     class="cls-3"
     d="m 295.65,297.42 -2.08,0.22 -0.47,1.12 -0.76,-1.25 -2.41,-0.22 1.8,-0.65 -0.54,-1 1.69,0.66 1.58,-0.52 -0.42,1 1.61,0.6"
     id="path250"
     inkscape:connector-curvature="0"
     style="fill:#ffffff" />
  <path
     class="cls-3"
     d="m 293,302.88 -3.89,-1.62 5.58,-0.86 -1.69,2.48"
     id="path252"
     inkscape:connector-curvature="0"
     style="fill:#ffffff" />
  <path
     class="cls-3"
     d="m 287.57,298.05 c 1.65,0 3,0.51 3,1.15 0,0.64 -1.34,1.16 -3,1.16 -1.66,0 -3,-0.52 -3,-1.16 0,-0.64 1.33,-1.15 3,-1.15"
     id="path254"
     inkscape:connector-curvature="0"
     style="fill:#ffffff" />
  <path
     class="cls-16"
     d="m 298.12,297.73 3.31,1.31 -3.31,1.3 v -2.61"
     id="path256"
     inkscape:connector-curvature="0"
     style="fill:#621b1c" />
  <path
     class="cls-17"
     d="m 294.47,299.18 3.65,-1.45 v 2.61 l -0.35,0.14 -3.3,-1.3"
     id="path258"
     inkscape:connector-curvature="0"
     style="fill:#9a2928" />
  <path
     class="cls-18"
     d="m 308,337.37 c -0.44,0 -0.3,0.14 -1.27,0.38 a 19.62,19.62 0 0 0 -3.21,0.61 c -3.14,1.31 -3.77,5.81 -6.62,7.42 -2.13,1.2 -4.28,1.29 -6.21,1.9 a 11.26,11.26 0 0 0 -3.81,2.21 c -0.89,0.77 -0.91,1.44 -1.85,2.41 -0.94,0.97 -4,0 -5.31,1.6 0.43,0.43 0.62,0.56 1.48,0.44 -0.18,0.34 -1.22,0.62 -1,1.11 0.22,0.49 2.74,0.87 5,-0.51 1.07,-0.64 1.92,-1.57 3.58,-1.79 a 27.3,27.3 0 0 1 7.11,0.54 11.3,11.3 0 0 1 -1.7,2.71 c -0.18,0.2 0.37,0.22 1,0.1 a 10,10 0 0 0 2.81,-1 c 1,-0.61 1.21,-2.18 2.5,-2.52 a 2.88,2.88 0 0 0 3.89,0.48 c -1.06,-0.3 -1.36,-2.56 -1,-3.56 0.36,-1 0.68,-2.46 1,-3.71 0.32,-1.25 0.5,-3 0.95,-3.72 a 8.79,8.79 0 0 1 2.05,-2 2.88,2.88 0 0 0 1.22,-2.48 0.58,0.58 0 0 0 -0.64,-0.65 z"
     id="path260"
     inkscape:connector-curvature="0"
     style="fill:#002b64" />
  <path
     class="cls-19"
     d="m 280.68,355.36 a 6.42,6.42 0 0 0 3.93,-0.57 c 1.11,-0.48 2.19,-1.48 3.51,-1.9 1.93,-0.62 4.05,0 6.12,0.12 a 9.25,9.25 0 0 0 1.49,0 c 0.77,-0.47 0.76,-2.24 1.51,-2.4 a 8.55,8.55 0 0 1 -2.11,5.41 6,6 0 0 0 4.49,-3.43 12.67,12.67 0 0 0 0.72,-1.68 c 0.32,0.24 0.14,1 0.3,1.4 1.55,-0.86 2.43,-2.83 3,-4.81 0.68,-2.3 0.95,-4.63 1.39,-5.31 a 5.65,5.65 0 0 1 1.7,-1.5 2.72,2.72 0 0 0 1.41,-1.91 c -0.73,-0.07 -0.9,-0.23 -1,-0.6 a 2.23,2.23 0 0 1 -1.08,0.26 c -0.33,0 -0.69,0 -1.13,0 -3.64,0.37 -4.1,4.38 -6.43,6.66 a 5,5 0 0 1 -0.55,0.46 11.26,11.26 0 0 1 -2.74,1.4 c -1.49,0.57 -2.91,0.61 -4.31,1.1 a 13.21,13.21 0 0 0 -2.91,1.46 c -0.21,0.15 -0.41,0.29 -0.59,0.44 a 6,6 0 0 0 -1.14,1.32 8.83,8.83 0 0 1 -1.11,1.44 c -0.78,0.76 -3.67,0.22 -4.68,0.92 a 0.75,0.75 0 0 0 -0.27,0.29 c 0.56,0.25 0.93,0.09 1.57,0.16 0.08,0.61 -1.32,1 -1.11,1.25 z"
     id="path262"
     inkscape:connector-curvature="0"
     style="fill:#d77758" />
  <path
     class="cls-19"
     d="m 302.72,351 a 5.28,5.28 0 0 0 0.8,2.4 2.47,2.47 0 0 1 -2.2,-0.6 c 0.15,-0.71 0.98,-1.36 1.4,-1.8 z"
     id="path264"
     inkscape:connector-curvature="0"
     style="fill:#d77758" />
  <path
     class="cls-18"
     d="m 303.74,340 a 0.87,0.87 0 0 0 1.41,-0.81 c -0.81,-0.09 -1.27,0.18 -1.41,0.81 z"
     id="path266"
     inkscape:connector-curvature="0"
     style="fill:#002b64" />
  <path
     class="cls-18"
     d="m 307.33,338.93 a 2.68,2.68 0 0 0 -0.4,1.38 c 0,0.13 -0.09,0.22 -0.09,0 a 2.71,2.71 0 0 1 0.39,-1.43 c 0.1,-0.14 0.15,-0.08 0.1,0.05 z"
     id="path268"
     inkscape:connector-curvature="0"
     style="fill:#002b64" />
  <path
     class="cls-18"
     d="m 307.2,338.82 a 3.12,3.12 0 0 0 -0.62,1.5 c 0,0.13 -0.11,0.2 -0.1,0 a 3.28,3.28 0 0 1 0.62,-1.54 c 0.11,-0.15 0.16,-0.08 0.1,0.04 z"
     id="path270"
     inkscape:connector-curvature="0"
     style="fill:#002b64" />
  <path
     class="cls-18"
     d="m 307.07,338.67 a 4,4 0 0 0 -0.91,1.58 c 0,0.13 -0.13,0.2 -0.1,0 a 4.06,4.06 0 0 1 0.92,-1.63 c 0.12,-0.13 0.16,-0.06 0.09,0.05 z"
     id="path272"
     inkscape:connector-curvature="0"
     style="fill:#002b64" />
  <path
     class="cls-18"
     d="m 307,338.51 a 5.27,5.27 0 0 0 -1.16,1.7 c 0,0.12 -0.16,0.17 -0.1,0 a 5.5,5.5 0 0 1 1.17,-1.73 c 0.14,-0.13 0.17,0 0.09,0.05 z"
     id="path274"
     inkscape:connector-curvature="0"
     style="fill:#002b64" />
  <text
     class="cls-20"
     id="text280"
     style="font-size:12px;font-family:Tahoma;fill:#ffffff"
     x="340.92999"
     y="391.07001">CON<tspan
   class="cls-21"
   x="364.63998"
   y="391.07001"
   id="tspan276"
   style="letter-spacing:-0.06em">T</tspan>
<tspan
   x="370.97"
   y="391.07001"
   id="tspan278">AINER</tspan>
</text>
  <path
     class="cls-22"
     d="m 302.36,262.24 -6.74,-6.73 -2.87,3.64 3.09,3.09 a 0.73,0.73 0 0 1 0,1 l -0.89,0.9 c 0,0 0.6,0.9 0.63,1 a 1.1,1.1 0 0 1 -0.22,1.23 l -7,5.4 v 5.54 l 14,-14 a 0.75,0.75 0 0 0 0,-1.07 z"
     id="path282"
     inkscape:connector-curvature="0"
     style="fill:#5e8cda" />
  <path
     class="cls-23"
     d="m 286.71,263.09 a 0.72,0.72 0 0 1 0,-1 l 0.89,-0.9 -0.61,-0.88 a 1,1 0 0 1 0.2,-1.31 l 7,-5.4 v -5.6 0 l -14,14 a 0.74,0.74 0 0 0 0,1 l 6.74,6.74 2.87,-3.64 z"
     id="path284"
     inkscape:connector-curvature="0"
     style="fill:#093071" />
  <polygon
     class="cls-3"
     points="291.39,267.54 288.14,270.8 "
     id="polygon286"
     style="fill:#ffffff" />
  <path
     class="cls-22"
     d="m 297.78,251.4 a 0.26,0.26 0 0 1 0.23,0.15 c 0.07,0.15 0,0.29 -0.12,0.42 l -6.17,7.82 a 0.43,0.43 0 0 0 0,0.45 c 0,0 3.33,4.83 3.44,5 a 0.81,0.81 0 0 1 -0.15,0.94 l -9.92,7.61 a 0.56,0.56 0 0 1 -0.32,0.15 0.29,0.29 0 0 1 -0.22,-0.15 c -0.07,-0.15 0,-0.29 0.12,-0.42 l 6.17,-7.83 a 0.41,0.41 0 0 0 0,-0.45 l -3.44,-4.95 a 0.72,0.72 0 0 1 0.15,-1 l 9.92,-7.61 c 0.16,-0.13 0.24,-0.15 0.31,-0.15 m 0,-0.12 a 0.62,0.62 0 0 0 -0.39,0.16 l -9.91,7.62 a 0.84,0.84 0 0 0 -0.18,1.15 l 3.44,5 a 0.34,0.34 0 0 1 0,0.31 l -6.17,7.82 a 0.53,0.53 0 0 0 -0.13,0.56 0.4,0.4 0 0 0 0.32,0.21 0.62,0.62 0 0 0 0.41,-0.17 l 9.91,-7.61 a 0.92,0.92 0 0 0 0.18,-1.11 c -0.11,-0.17 -3.44,-5 -3.44,-5 a 0.32,0.32 0 0 1 0,-0.3 L 298,252 a 0.51,0.51 0 0 0 0.13,-0.55 0.38,0.38 0 0 0 -0.34,-0.21 z"
     id="path288"
     inkscape:connector-curvature="0"
     style="fill:#5e8cda" />
  <path
     class="cls-24"
     d="m 294.9,265.26 c 0.08,0.12 0.15,0.57 0,0.73 l -9.92,7.61 a 0.44,0.44 0 0 1 -0.16,0.09 c 0,0 0,-0.05 0.08,-0.17 l 6.17,-7.83 a 0.67,0.67 0 0 0 0,-0.73 l -3.44,-5 c 0,0 7.19,5.17 7.27,5.3 z"
     id="path290"
     inkscape:connector-curvature="0"
     style="fill:#f5cd21" />
  <path
     class="cls-25"
     d="m 294.9,265.26 -3.39,-4.88 a 0.67,0.67 0 0 1 0,-0.73 l 6.17,-7.83 c 0.09,-0.12 0.11,-0.18 0.08,-0.18 -0.03,0 -0.08,0 -0.16,0.1 l -9.92,7.61 a 0.47,0.47 0 0 0 -0.1,0.65 z"
     id="path292"
     inkscape:connector-curvature="0"
     style="fill:#fddd75" />
  <text
     class="cls-26"
     id="text304"
     style="font-size:14px;font-family:Tahoma;fill:#000000;"
     x="318.79001"
     y="186.71001">Le<tspan
   class="cls-27"
   x="333.12"
   y="186.71001"
   id="tspan294"
   style="letter-spacing:0.01em;fill:#000000;">t</tspan>
<tspan
   class="cls-28"
   x="337.92999"
   y="186.71001"
   id="tspan296"
   style="letter-spacing:-0.03em;fill:#000000;">’</tspan>
<tspan
   x="340.42001"
   y="186.71001"
   id="tspan298"
   style="fill:#000000;">s Encrypt</tspan>
<tspan
   class="cls-29"
   x="401.98001"
   y="186.71001"
   id="tspan300"
   style="letter-spacing:-0.01em;fill:#000000;">S</tspan>
<tspan
   x="409.62"
   y="186.71001"
   id="tspan302"
   style="fill:#000000;">SL</tspan>
</text>
  <text
     class="cls-26"
     id="text322"
     style="font-size:14px;font-family:Tahoma;fill:#000000;"
     x="318.17001"
     y="228.03999">
    <tspan
       class="cls-30"
       id="tspan306"
       style="letter-spacing:-0.04em;fill:#000000;">W</tspan>
    <tspan
       x="330.28"
       y="228.03999"
       id="tspan308"
       style="fill:#000000;">eb App Fi</tspan>
    <tspan
       class="cls-31"
       x="388.5"
       y="228.03999"
       id="tspan310"
       style="letter-spacing:0em;fill:#000000;">r</tspan>
    <tspan
       x="393.48001"
       y="228.03999"
       id="tspan312"
       style="fill:#000000;">e</tspan>
    <tspan
       class="cls-32"
       x="400.85001"
       y="228.03999"
       id="tspan314"
       style="letter-spacing:-0.01em;fill:#000000;">w</tspan>
    <tspan
       x="411.12"
       y="228.03999"
       id="tspan316"
       style="fill:#000000;">a</tspan>
    <tspan
       class="cls-33"
       x="418.47"
       y="228.03999"
       id="tspan318"
       style="letter-spacing:0em;fill:#000000;">l</tspan>
    <tspan
       x="421.70999"
       y="228.03999"
       id="tspan320"
       style="fill:#000000;">l</tspan>
  </text>
  <text
     class="cls-26"
     id="text340"
     style="font-size:14px;font-family:Tahoma;fill:#000000;"
     x="318.76999"
     y="266.85001">L<tspan
   class="cls-34"
   x="325.73999"
   y="266.85001"
   id="tspan324"
   style="letter-spacing:0em;fill:#000000;">i</tspan>
<tspan
   x="328.95999"
   y="266.85001"
   id="tspan326"
   style="fill:#000000;">teSpeed</tspan>
<tspan
   class="cls-30"
   x="383.39999"
   y="266.85001"
   id="tspan328"
   style="letter-spacing:-0.04em;fill:#000000;">W</tspan>
<tspan
   x="395.51001"
   y="266.85001"
   id="tspan330"
   style="fill:#000000;">eb</tspan>
<tspan
   class="cls-34"
   x="414.98999"
   y="266.85001"
   id="tspan332"
   style="letter-spacing:0em;fill:#000000;">S</tspan>
<tspan
   x="422.82001"
   y="266.85001"
   id="tspan334"
   style="fill:#000000;">er</tspan>
<tspan
   class="cls-35"
   x="435.23001"
   y="266.85001"
   id="tspan336"
   style="letter-spacing:-0.01em;fill:#000000;">v</tspan>
<tspan
   x="442.10001"
   y="266.85001"
   id="tspan338"
   style="fill:#000000;">er</tspan>
</text>
  <text
     class="cls-26"
     id="text346"
     style="font-size:14px;font-family:Tahoma;fill:#000000;"
     x="319.03"
     y="309.85001">
    <tspan
       class="cls-36"
       id="tspan342"
       style="letter-spacing:-0.02em;fill:#000000;">R</tspan>
    <tspan
       x="327.47"
       y="309.85001"
       id="tspan344"
       style="fill:#000000;">edis Object Cache</tspan>
  </text>
  <text
     class="cls-26"
     id="text348"
     style="font-size:14px;font-family:Tahoma;fill:#000000;"
     x="319.34"
     y="349.48999">MariaDB (Primary)</text>
  <rect
     class="cls-37"
     x="110.14"
     y="114.15"
     width="254.06"
     height="1"
     id="rect350"
     style="fill:#556ae5" />
  <rect
     class="cls-37"
     x="237.28999"
     y="98.290001"
     width="0.97000003"
     height="16"
     id="rect352"
     style="fill:#556ae5" />
  <rect
     class="cls-37"
     x="110.5"
     y="114.7"
     width="1"
     height="15.83"
     id="rect354"
     style="fill:#556ae5" />
  <polyline
     class="cls-37"
     points="110.33 130.03 108 130.03 111 135.03 114 130.03 111.66 130.03"
     id="polyline356"
     style="fill:#556ae5" />
  <rect
     class="cls-37"
     x="363.26001"
     y="114.7"
     width="1"
     height="15.83"
     id="rect358"
     style="fill:#556ae5" />
  <polyline
     class="cls-37"
     points="363.09 130.03 360.76 130.03 363.76 135.03 366.76 130.03 364.42 130.03"
     id="polyline360"
     style="fill:#556ae5" />
  <polyline
     class="cls-1"
     points="243.81 256.01 243.81 258.35 248.81 255.34 243.81 252.34 243.81 254.68"
     id="polyline366"
     style="fill:#7889a8" />
  <polygon
     class="cls-1"
     points="243.31,259.23 243.31,256.01 244.31,256.01 244.31,257.46 247.84,255.34 244.31,253.23 244.31,254.68 243.31,254.68 243.31,251.46 249.78,255.34 "
     id="polygon368"
     style="fill:#7889a8" />
  <text
     id="text374" />
  <text
     class="cls-26"
     id="text380"
     style="font-size:14px;font-family:Tahoma;fill:#ffffff"
     x="222.45"
     y="277.44">
    <tspan
       class="cls-38"
       id="tspan376"
       style="letter-spacing:-0.01em">S</tspan>
    <tspan
       x="230.05"
       y="277.44"
       id="tspan378">ync</tspan>
  </text>
  <line
     class="cls-1"
     x1="217.78999"
     y1="0.47999999"
     x2="217.78999"
     y2="15.48"
     id="line382"
     style="fill:#7889a8" />
  <rect
     class="cls-1"
     x="217.28999"
     y="0.47999999"
     width="1"
     height="15"
     id="rect384"
     style="fill:#7889a8" />
  <polyline
     class="cls-1"
     points="217.12 14 214.79 14 217.79 19 220.79 14 218.45 14"
     id="polyline386"
     style="fill:#7889a8" />
  <polygon
     class="cls-1"
     points="213.9,13.5 217.12,13.5 217.12,14.5 215.67,14.5 217.79,18.03 219.9,14.5 218.45,14.5 218.45,13.5 221.67,13.5 217.79,19.97 "
     id="polygon388"
     style="fill:#7889a8" />
  <line
     class="cls-1"
     x1="237.78999"
     x2="237.78999"
     y2="15"
     id="line390"
     y1="0"
     style="fill:#7889a8" />
  <rect
     class="cls-1"
     x="237.28999"
     width="1"
     height="15"
     id="rect392"
     y="0"
     style="fill:#7889a8" />
  <polyline
     class="cls-1"
     points="237.12 14 234.79 14 237.79 19 240.79 14 238.45 14"
     id="polyline394"
     style="fill:#7889a8" />
  <polygon
     class="cls-1"
     points="233.9,13.5 237.12,13.5 237.12,14.5 235.67,14.5 237.79,18.03 239.9,14.5 238.45,14.5 238.45,13.5 241.67,13.5 237.79,19.97 "
     id="polygon396"
     style="fill:#7889a8" />
  <line
     class="cls-1"
     x1="257.79001"
     x2="257.79001"
     y2="15"
     id="line398"
     y1="0"
     style="fill:#7889a8" />
  <rect
     class="cls-1"
     x="257.29001"
     width="1"
     height="15"
     id="rect400"
     y="0"
     style="fill:#7889a8" />
  <polyline
     class="cls-1"
     points="257.12 14 254.79 14 257.79 19 260.79 14 258.45 14"
     id="polyline402"
     style="fill:#7889a8" />
  <polygon
     class="cls-1"
     points="253.9,13.5 257.12,13.5 257.12,14.5 255.67,14.5 257.79,18.03 259.9,14.5 258.45,14.5 258.45,13.5 261.67,13.5 257.79,19.97 "
     id="polygon404"
     style="fill:#7889a8" />
  <path
     class="cls-37"
     d="m 226.05,43.76 a 4.94,4.94 0 0 1 1.45,0.22 39.4,39.4 0 0 1 5.7,-5.25 5.31,5.31 0 0 1 -0.13,-1.14 5,5 0 0 1 0.25,-1.55 36.16,36.16 0 0 0 -7.52,-4.14 23.1,23.1 0 0 0 -6.46,6 36.33,36.33 0 0 0 4.59,6.39 4.89,4.89 0 0 1 2.12,-0.53 z m -4.89,4.9 a 4.81,4.81 0 0 1 0.4,-1.94 39.14,39.14 0 0 1 -4.24,-5.57 23,23 0 0 0 0.79,22.09 39.09,39.09 0 0 1 4,-11.63 4.82,4.82 0 0 1 -0.95,-2.95 z m 16.8,-16 a 4.88,4.88 0 0 1 3.34,1.34 38.87,38.87 0 0 1 8,-2.48 23,23 0 0 0 -19.52,-1.52 38.54,38.54 0 0 1 5.69,3.43 4.89,4.89 0 0 1 2.53,-0.73 z m 7.32,23 a 4.65,4.65 0 0 1 1.27,-1.64 35.85,35.85 0 0 0 -6.68,-12 4.85,4.85 0 0 1 -4.75,-0.53 35.6,35.6 0 0 0 -4.91,4.51 4.92,4.92 0 0 1 0.74,2.58 4.7,4.7 0 0 1 -0.23,1.46 35.63,35.63 0 0 0 14.56,5.71 z m 6.34,6.6 c 0.07,0.93 0.11,1.86 0.11,2.81 a 39.67,39.67 0 0 1 -0.31,4.9 23,23 0 0 0 8.37,-11.6 39.49,39.49 0 0 1 -5.45,0.92 4.91,4.91 0 0 1 -2.72,3.06 z M 244.13,59 a 39,39 0 0 1 -15.52,-6.21 5,5 0 0 1 -2.56,0.72 5.56,5.56 0 0 1 -1,-0.1 35.68,35.68 0 0 0 -4,13.71 23.05,23.05 0 0 0 7.87,5.51 A 39.06,39.06 0 0 1 244.13,59 Z m 9.18,-24.61 a 35.59,35.59 0 0 0 -10.48,2.67 c 0,0.16 0,0.33 0,0.49 a 4.86,4.86 0 0 1 -0.5,2.15 39.3,39.3 0 0 1 7.44,13.3 4.93,4.93 0 0 1 4.43,3 36,36 0 0 0 6.44,-1.26 23,23 0 0 0 -7.33,-20.27 z m -6.72,27.22 a 35.77,35.77 0 0 0 -14.31,12.14 23,23 0 0 0 15.3,-1.46 36.1,36.1 0 0 0 0.72,-7.17 c 0,-0.89 0,-1.77 -0.1,-2.64 a 4.92,4.92 0 0 1 -1.61,-0.83 z"
     id="path406"
     inkscape:connector-curvature="0"
     style="fill:#556ae5" />
  <path
     class="cls-37"
     d="m 202.85,84.11 a 2.84,2.84 0 0 1 -0.91,2.25 3.81,3.81 0 0 1 -2.57,0.78 h -0.91 v 3.49 H 197 v -9.35 h 2.53 A 3.64,3.64 0 0 1 202,82 a 2.65,2.65 0 0 1 0.85,2.11 z m -4.39,1.74 h 0.76 a 2.66,2.66 0 0 0 1.63,-0.41 1.54,1.54 0 0 0 0.51,-1.28 1.48,1.48 0 0 0 -0.46,-1.2 2.15,2.15 0 0 0 -1.44,-0.4 h -1 z"
     id="path408"
     inkscape:connector-curvature="0"
     style="fill:#556ae5" />
  <path
     class="cls-37"
     d="m 207.83,83.43 a 2.7,2.7 0 0 1 0.7,0.07 l -0.13,1.4 a 2.59,2.59 0 0 0 -0.63,-0.08 1.78,1.78 0 0 0 -1.38,0.59 2.2,2.2 0 0 0 -0.52,1.53 v 3.69 h -1.42 v -7.07 h 1.11 l 0.19,1.25 h 0.07 a 2.84,2.84 0 0 1 0.86,-1 2,2 0 0 1 1.15,-0.38 z"
     id="path410"
     inkscape:connector-curvature="0"
     style="fill:#556ae5" />
  <path
     class="cls-37"
     d="m 212.68,90.76 a 3.11,3.11 0 0 1 -2.43,-1 3.77,3.77 0 0 1 -0.88,-2.65 4.19,4.19 0 0 1 0.81,-2.73 2.75,2.75 0 0 1 2.24,-1 2.69,2.69 0 0 1 2.08,0.85 3.38,3.38 0 0 1 0.76,2.34 v 0.82 h -4.43 a 2.41,2.41 0 0 0 0.52,1.58 1.76,1.76 0 0 0 1.39,0.55 5.39,5.39 0 0 0 1.1,-0.11 5.86,5.86 0 0 0 1.09,-0.4 v 1.22 a 3.76,3.76 0 0 1 -1.05,0.37 5.45,5.45 0 0 1 -1.2,0.16 z m -0.26,-6.19 a 1.42,1.42 0 0 0 -1.09,0.45 2.34,2.34 0 0 0 -0.48,1.33 h 3 a 2,2 0 0 0 -0.39,-1.33 1.33,1.33 0 0 0 -1.04,-0.45 z"
     id="path412"
     inkscape:connector-curvature="0"
     style="fill:#556ae5" />
  <path
     class="cls-37"
     d="m 222.48,90.63 h -1.42 v -4.36 a 2.1,2.1 0 0 0 -0.29,-1.21 1,1 0 0 0 -0.9,-0.4 1.33,1.33 0 0 0 -1.2,0.57 3.41,3.41 0 0 0 -0.38,1.88 v 3.52 h -1.42 V 83.56 H 218 l 0.2,0.93 h 0.07 a 1.83,1.83 0 0 1 0.8,-0.78 2.4,2.4 0 0 1 1.16,-0.28 2,2 0 0 1 2,1.11 h 0.09 a 2.15,2.15 0 0 1 0.83,-0.81 2.49,2.49 0 0 1 1.23,-0.3 2.19,2.19 0 0 1 1.74,0.64 3,3 0 0 1 0.54,2 v 4.61 h -1.41 v -4.41 a 2.1,2.1 0 0 0 -0.29,-1.21 1.05,1.05 0 0 0 -0.91,-0.4 1.37,1.37 0 0 0 -1.21,0.55 3,3 0 0 0 -0.38,1.68 z"
     id="path414"
     inkscape:connector-curvature="0"
     style="fill:#556ae5" />
  <path
     class="cls-37"
     d="m 228.57,81.69 a 0.85,0.85 0 0 1 0.21,-0.62 0.77,0.77 0 0 1 0.59,-0.22 0.75,0.75 0 0 1 0.58,0.22 1,1 0 0 1 0,1.22 0.75,0.75 0 0 1 -0.58,0.22 0.77,0.77 0 0 1 -0.59,-0.22 0.84,0.84 0 0 1 -0.21,-0.6 z m 1.5,8.94 h -1.41 v -7.07 h 1.41 z"
     id="path416"
     inkscape:connector-curvature="0"
     style="fill:#556ae5" />
  <path
     class="cls-37"
     d="m 236.79,90.63 -0.2,-0.92 h -0.07 a 2.09,2.09 0 0 1 -0.84,0.77 2.63,2.63 0 0 1 -1.24,0.28 2.35,2.35 0 0 1 -1.81,-0.64 2.73,2.73 0 0 1 -0.6,-1.94 v -4.62 h 1.43 v 4.36 a 2,2 0 0 0 0.31,1.22 1.18,1.18 0 0 0 1,0.41 1.52,1.52 0 0 0 1.31,-0.57 3.37,3.37 0 0 0 0.41,-1.9 v -3.52 h 1.42 v 7.07 z"
     id="path418"
     inkscape:connector-curvature="0"
     style="fill:#556ae5" />
  <path
     class="cls-37"
     d="m 245.53,90.63 h -1.42 v -4.36 a 2.1,2.1 0 0 0 -0.29,-1.21 1,1 0 0 0 -0.9,-0.4 1.33,1.33 0 0 0 -1.2,0.57 3.4,3.4 0 0 0 -0.39,1.88 v 3.52 h -1.41 V 83.56 H 241 l 0.2,0.93 h 0.07 a 1.83,1.83 0 0 1 0.8,-0.78 2.4,2.4 0 0 1 1.16,-0.28 2,2 0 0 1 2,1.11 h 0.1 a 2.15,2.15 0 0 1 0.83,-0.81 2.49,2.49 0 0 1 1.23,-0.3 2.21,2.21 0 0 1 1.74,0.64 3,3 0 0 1 0.54,2 v 4.61 h -1.41 v -4.41 a 2,2 0 0 0 -0.3,-1.21 1,1 0 0 0 -0.9,-0.4 1.37,1.37 0 0 0 -1.21,0.55 3,3 0 0 0 -0.38,1.68 z"
     id="path420"
     inkscape:connector-curvature="0"
     style="fill:#556ae5" />
  <path
     class="cls-37"
     d="m 258.8,82.46 a 2.34,2.34 0 0 0 -1.95,0.93 4.23,4.23 0 0 0 -0.71,2.58 4.14,4.14 0 0 0 0.69,2.6 2.33,2.33 0 0 0 2,0.89 4.86,4.86 0 0 0 1.09,-0.12 c 0.34,-0.08 0.71,-0.18 1.09,-0.3 v 1.31 a 6.43,6.43 0 0 1 -2.35,0.41 3.64,3.64 0 0 1 -3,-1.24 5.44,5.44 0 0 1 -1,-3.56 6,6 0 0 1 0.51,-2.55 3.74,3.74 0 0 1 1.45,-1.68 4.19,4.19 0 0 1 2.23,-0.58 5.3,5.3 0 0 1 2.5,0.6 L 260.79,83 a 7.14,7.14 0 0 0 -0.94,-0.39 3.3,3.3 0 0 0 -1.05,-0.15 z"
     id="path422"
     inkscape:connector-curvature="0"
     style="fill:#556ae5" />
  <path
     class="cls-37"
     d="m 270,85.87 a 4.83,4.83 0 0 1 -1.21,3.54 4.68,4.68 0 0 1 -3.49,1.22 h -2.46 v -9.35 h 2.72 a 4.32,4.32 0 0 1 3.27,1.21 4.63,4.63 0 0 1 1.17,3.38 z m -1.52,0 q 0,-3.36 -2.95,-3.36 h -1.25 v 6.79 h 1 q 3.23,0.05 3.23,-3.38 z"
     id="path424"
     inkscape:connector-curvature="0"
     style="fill:#556ae5" />
  <path
     class="cls-37"
     d="m 279.25,90.63 h -1.76 l -4.33,-7.45 h -0.05 v 0.42 c 0.06,0.79 0.08,1.52 0.08,2.17 v 4.86 h -1.3 v -9.35 h 1.75 L 278,88.7 v 0 c 0,-0.1 0,-0.46 0,-1.07 0,-0.61 0,-1.1 0,-1.45 v -4.9 h 1.32 z"
     id="path426"
     inkscape:connector-curvature="0"
     style="fill:#556ae5" />
  <polyline
     transform="matrix(-1,0,0,1,475.06,0.0100061)"
     class="cls-1"
     points="243.81 256.01 243.81 258.35 248.81 255.34 243.81 252.34 243.81 254.68"
     id="polyline366-1"
     style="fill:#7889a8" />
  <polygon
     transform="matrix(-1,0,0,1,475.06,0.0100061)"
     class="cls-1"
     points="244.31,254.68 243.31,254.68 243.31,251.46 249.78,255.34 243.31,259.23 243.31,256.01 244.31,256.01 244.31,257.46 247.84,255.34 244.31,253.23 "
     id="polygon368-4"
     style="fill:#7889a8" />
</svg>
